<svg width="247" height="205" viewBox="0 0 247 205" fill="none" xmlns="http://www.w3.org/2000/svg">
<ellipse cx="110" cy="117.5" rx="110" ry="87.5" fill="#278FE3"/>
<path d="M89.1492 119.263C90.326 120.458 92.0516 122.263 94.326 124.679C96.6004 127.094 99.0966 129.788 101.815 132.76C104.586 135.627 107.357 138.626 110.127 141.757C112.95 144.782 115.498 147.635 117.77 150.314C120.017 152.913 121.831 155.128 123.214 156.956C124.597 158.785 125.208 159.857 125.048 160.172C124.701 160.723 124.052 161.153 123.101 161.462C122.229 161.745 121.279 161.922 120.251 161.994C119.302 162.039 118.327 162.005 117.326 161.892C116.405 161.754 115.709 161.498 115.237 161.126C110.522 157.4 106.292 153.955 102.548 150.791C98.8031 147.627 95.543 144.874 92.7674 142.534C89.6252 139.875 86.8109 137.416 84.3245 135.157C84.053 136.209 83.7418 137.274 83.3911 138.352C83.0938 139.325 82.7837 140.258 82.4606 141.151C83.5362 145.271 84.5345 149.152 85.4555 152.796C86.3766 156.44 87.156 159.647 87.7938 162.419C88.4316 165.191 88.8366 167.382 89.0089 168.99C89.2861 170.653 89.3059 171.523 89.0681 171.6C88.4856 171.964 87.6554 171.971 86.5776 171.62C85.579 171.244 84.529 170.709 83.4274 170.015C82.4051 169.296 81.4492 168.511 80.5596 167.661C79.6443 166.732 78.9786 165.897 78.5626 165.156C75.5119 157.385 72.8109 150.42 70.4595 144.262C68.1082 138.104 66.0678 132.634 64.3385 127.85C62.6091 123.067 61.1254 118.906 59.8873 115.365C58.6493 111.824 57.6182 108.786 56.7942 106.25C54.8628 100.305 53.7347 96.1595 53.41 93.8116C53.1862 92.0442 53.4637 90.2016 54.2425 88.2838C54.9956 86.2867 55.9051 84.5015 56.9712 82.9285C58.0908 81.2504 59.1945 79.9279 60.2823 78.9611C61.3443 77.915 62.1121 77.4465 62.5857 77.5555C62.9799 77.6903 63.707 79.1189 64.7668 81.8413C65.8008 84.4844 66.9607 87.9191 68.2462 92.1454C69.5318 96.3716 70.9451 101.126 72.4862 106.408C74.0015 111.611 75.4901 116.867 76.952 122.175C77.9748 115.884 79.063 109.66 80.2165 103.502C81.4494 97.3186 82.6247 91.767 83.7425 86.8475C84.8604 81.9279 85.879 77.9168 86.7986 74.8141C87.6924 71.6322 88.3771 69.964 88.8526 69.8095C89.3281 69.655 90.0899 69.977 91.138 70.7755C92.1603 71.4948 93.2064 72.5569 94.2762 73.9617C95.4252 75.3408 96.4148 76.9032 97.2448 78.6488C98.0749 80.3944 98.4829 82.1895 98.4689 84.0341C98.4609 85.0881 98.1973 86.8386 97.678 89.2855C97.1329 91.6532 96.4135 94.4279 95.5197 97.6099C94.6259 100.792 93.6112 104.276 92.4756 108.062C91.3936 111.743 90.2848 115.477 89.1492 119.263ZM135.736 100.84C137.868 101.199 140.026 101.637 142.209 102.154C144.472 102.646 146.563 103.149 148.483 103.665C150.377 104.101 151.981 104.587 153.294 105.124C154.662 105.556 155.581 105.959 156.052 106.331C156.655 106.836 157.175 107.763 157.612 109.11C158.025 110.378 158.369 111.843 158.646 113.506C158.977 115.063 159.189 116.659 159.282 118.294C159.349 119.849 159.287 121.14 159.095 122.166C158.9 123.456 158.096 125.294 156.681 127.682C155.345 130.043 153.772 132.482 151.961 134.999C150.15 137.515 148.314 139.82 146.453 141.914C144.672 143.982 143.238 145.368 142.153 146.071C141.358 146.592 140.128 147.255 138.461 148.059C136.874 148.838 135.195 149.603 133.424 150.353C131.652 151.104 130.026 151.764 128.546 152.332C127.12 152.796 126.222 153 125.854 152.944C125.091 152.754 124.343 152.34 123.61 151.702C122.956 151.038 122.423 150.072 122.011 148.804C121.268 145.979 120.967 143.974 121.108 142.789C121.189 142.5 121.349 142.316 121.587 142.239C121.799 142.083 122.182 141.914 122.737 141.734C123.292 141.554 124.005 141.322 124.877 141.039C125.749 140.755 126.885 140.342 128.286 139.8C126.576 135.886 124.971 132.158 123.469 128.616C121.967 125.073 120.647 121.953 119.508 119.257C118.135 116.11 116.906 113.136 115.82 110.334C114.761 107.612 113.519 104.598 112.094 101.293C110.904 98.4382 109.519 95.1204 107.94 91.3399C106.361 87.5594 104.64 83.4748 102.776 79.086C102.062 79.3178 101.23 79.5882 100.279 79.8972C99.3281 80.2062 98.377 80.5152 97.426 80.8243C96.5284 81.0283 95.7497 81.1937 95.09 81.3204C94.3252 81.3937 93.8249 81.3372 93.5891 81.1509C93.1176 80.7784 92.5966 79.9838 92.026 78.7673C91.4297 77.4714 90.9256 76.1895 90.5136 74.9214C90.0758 73.5741 89.8887 72.1891 89.9522 70.7665C89.9899 69.2647 90.2614 68.2126 90.7667 67.6103C90.8995 67.4796 91.5335 67.2736 92.6688 66.9923C93.7784 66.6318 95.1644 66.3129 96.8267 66.0356C98.4633 65.6791 100.245 65.3632 102.17 65.088C104.15 64.7077 106.023 64.4057 107.79 64.1819C109.532 63.8789 111.076 63.6403 112.421 63.466C113.766 63.2917 114.69 63.167 115.191 63.0917C116.035 62.9927 117.682 62.9394 120.133 62.9316C122.638 62.8189 125.339 62.7735 128.238 62.7955C131.136 62.8175 133.955 62.997 136.693 63.334C139.405 63.5918 141.405 64.0813 142.69 64.8026C143.215 65.0701 143.933 66.0638 144.842 67.7837C145.83 69.4778 146.765 71.4086 147.644 73.5763C148.603 75.7182 149.365 77.7927 149.929 79.7998C150.547 81.7019 150.761 83.0343 150.571 83.7971C150.408 84.3757 149.569 85.5684 148.053 87.3752C146.537 89.1821 144.836 91.0929 142.95 93.1078C140.798 95.3842 138.393 97.9617 135.736 100.84ZM125.929 101.398C126.805 100.588 127.882 99.1864 129.163 97.1933C130.522 95.1744 131.79 93.0099 132.967 90.6998C134.198 88.2846 135.151 85.9596 135.827 83.7247C136.556 81.3848 136.702 79.5412 136.264 78.1939C136.135 77.7976 135.532 77.4241 134.454 77.0733C133.456 76.6968 132.14 76.4233 130.507 76.2528C128.875 76.0823 126.965 76.0019 124.777 76.0116C122.644 75.9164 120.377 75.9519 117.978 76.1181L125.929 101.398ZM136.896 135.556C138.96 134.36 140.816 132.924 142.463 131.25C144.109 129.576 145.492 127.9 146.612 126.222C147.706 124.465 148.483 122.81 148.942 121.259C149.402 119.708 149.465 118.417 149.13 117.386C148.795 116.356 147.748 115.426 145.989 114.595C144.309 113.739 142.351 112.973 140.116 112.298C137.961 111.596 135.804 111.026 133.646 110.588C131.489 110.15 129.817 109.861 128.633 109.72L136.896 135.556Z" fill="#EFEFEF"/>
</svg>
